<?xml version="1.0" encoding="utf-8"?>
<!-- Generated by IcoMoon.io -->
<!DOCTYPE svg PUBLIC "-//W3C//DTD SVG 1.1//EN" "http://www.w3.org/Graphics/SVG/1.1/DTD/svg11.dtd">
<svg version="1.1" xmlns="http://www.w3.org/2000/svg" xmlns:xlink="http://www.w3.org/1999/xlink">
    <defs>
        <g id="ArrowDown">
            <symbol viewBox="0 0 1024 1024">
                <path
                    d="M891.802 312.781c13.926-13.722 36.301-13.722 50.125 0s13.875 35.891 0 49.613l-404.89 400.896c-13.824 13.722-36.198 13.722-50.125 0l-404.89-400.896c-13.824-13.722-13.824-35.891 0-49.613 13.875-13.722 36.301-13.722 50.125 0l379.853 365.619 379.802-365.619z"></path>
            </symbol>
        </g>
        <g id="Check">
            <symbol viewBox="0 0 24 24">
                <path d="M9 16.172l10.594-10.594 1.406 1.406-12 12-5.578-5.578 1.406-1.406z"></path>
            </symbol>
        </g>
        <g id="DropDown">
            <symbol viewBox="0 0 30 30">
                <polyline points="19.8,10.9 14.7,19.4 9.5,10.9 "/>
            </symbol>
        </g>
        <g id="Edit">
            <symbol viewBox="0 0 28 28">
                <path
                    d="M5.672 24l1.422-1.422-3.672-3.672-1.422 1.422v1.672h2v2h1.672zM13.844 9.5q0-0.344-0.344-0.344-0.156 0-0.266 0.109l-8.469 8.469q-0.109 0.109-0.109 0.266 0 0.344 0.344 0.344 0.156 0 0.266-0.109l8.469-8.469q0.109-0.109 0.109-0.266zM13 6.5l6.5 6.5-13 13h-6.5v-6.5zM23.672 8q0 0.828-0.578 1.406l-2.594 2.594-6.5-6.5 2.594-2.578q0.562-0.594 1.406-0.594 0.828 0 1.422 0.594l3.672 3.656q0.578 0.609 0.578 1.422z"></path>
            </symbol>
        </g>
        <g id="Search">
            <symbol viewBox="0 0 30 30">
                <path
                    d="M 17.610122,5.6720296 C 14.771242,2.5191331 9.7780941,2.2574533 6.6251976,5.0963341 3.4723011,7.9352148 3.2106213,12.928362 6.0495021,16.081259 c 2.5549926,2.837607 6.7335359,3.357007 9.9391929,1.422126 l 5.599258,7.803737 c 0,0 1.608699,1.786642 3.295477,0.172709 1.786641,-1.608699 0.172709,-3.295477 0.172709,-3.295477 L 17.880433,15.800057 C 20.244893,12.719581 20.165115,8.5096364 17.610122,5.6720296 Z M 14.952581,14.34483 C 13.060843,16.048159 9.9650916,15.885917 8.2617632,13.994179 6.5584347,12.102442 6.7206762,9.0066901 8.6124141,7.3033616 10.504152,5.6000332 13.599904,5.7622746 15.303232,7.6540125 17.10119,9.650847 16.944182,12.646736 14.952581,14.34483 Z"/>
            </symbol>
        </g>
        <g id="Search2">
            <symbol viewBox="0 0 30 30">
                <path d="M24,16.6c3-3,3-8,0-11c-3-3-8-3-11,0c-2.7,2.7-3,6.9-0.9,10l-7.5,6c0,0-1.7,1.7,0,3.3c1.7,1.7,3.3,0,3.3,0
                		l6-7.5C17.1,19.6,21.3,19.3,24,16.6z M15.2,14.4c-1.8-1.8-1.8-4.9,0-6.7s4.9-1.8,6.7,0c1.8,1.8,1.8,4.9,0,6.7
                		C20,16.3,17,16.3,15.2,14.4z"/>
            </symbol>
        </g>
        <g id="SelectArrows">
            <symbol viewBox="4 0 12 18">
                <path d="M10 1l-5 7h10l-5-7zM10 19l5-7h-10l5 7z"></path>
            </symbol>
        </g>
        <g id="Star">
            <symbol viewBox="0 0 30 30">
                <polygon class="st0"
                         points="15.5,19.6 9.6,23.1 11.1,16.4 5.9,11.8 12.8,11.2 15.5,4.9 18.2,11.2 25.1,11.8 19.9,16.4 21.4,23.1 "/>
            </symbol>
        </g>
    </defs>
</svg>
